<svg width="12" height="11" viewBox="0 0 12 11" fill="none" xmlns="http://www.w3.org/2000/svg">
<path d="M8.76375 0.880001C9.07573 0.879731 9.38461 0.943417 9.67231 1.06733C9.96 1.19124 10.2207 1.37288 10.4391 1.6016C10.8892 2.07081 11.1415 2.70299 11.1415 3.3616C11.1415 4.02021 10.8892 4.65239 10.4391 5.1216L6 9.7372L1.56086 5.1216C1.11077 4.65239 0.858474 4.02021 0.858474 3.3616C0.858474 2.70299 1.11077 2.07081 1.56086 1.6016C1.77943 1.37304 2.04015 1.1915 2.32781 1.06757C2.61547 0.943641 2.9243 0.879812 3.23625 0.879812C3.5482 0.879812 3.85702 0.943641 4.14468 1.06757C4.43234 1.1915 4.69307 1.37304 4.91164 1.6016L6 2.7456L7.08408 1.6104C7.30185 1.37895 7.56285 1.19498 7.85145 1.06948C8.14005 0.943984 8.45034 0.879539 8.76375 0.880001ZM8.76375 1.18046e-06C8.33767 -0.000369617 7.91581 0.0866175 7.5229 0.255862C7.12999 0.425107 6.77394 0.673202 6.47562 0.985601L6 1.4784L5.52438 0.985601C5.2257 0.673765 4.86956 0.426101 4.47672 0.257045C4.08388 0.0879887 3.66219 0.000922868 3.23625 0.000922868C2.8103 0.000922868 2.38862 0.0879887 1.99578 0.257045C1.60294 0.426101 1.2468 0.673765 0.948119 0.985601C0.34047 1.6208 0 2.4756 0 3.366C0 4.2564 0.34047 5.11121 0.948119 5.7464L6 11L11.0519 5.7464C11.6595 5.11121 12 4.2564 12 3.366C12 2.4756 11.6595 1.6208 11.0519 0.985601C10.7533 0.673599 10.3972 0.425764 10.0043 0.256548C9.61148 0.0873321 9.18976 0.000121483 8.76375 1.18046e-06Z" fill="white"/>
</svg>
