<svg width="15" height="13" viewBox="0 0 15 13" fill="none" xmlns="http://www.w3.org/2000/svg">
<path d="M7.80617 0.106872C7.71742 0.0376156 7.60807 0 7.49549 0C7.38292 0 7.27357 0.0376156 7.18482 0.106872L0 5.70968L0.621351 6.49554L1.5 5.81043V12C1.50055 12.265 1.60608 12.5191 1.7935 12.7065C1.98092 12.8939 2.23496 12.9995 2.50001 13H12.5C12.7651 12.9995 13.0192 12.894 13.2066 12.7066C13.394 12.5191 13.4995 12.2651 13.5 12V5.81498L14.3787 6.49999L15 5.71408L7.80617 0.106872ZM8.50002 12H6.50001V7.99999H8.50002V12ZM9.50002 12V7.99999C9.49972 7.73487 9.39426 7.48069 9.20679 7.29322C9.01932 7.10575 8.76514 7.00029 8.50002 6.99999H6.50001C6.23488 7.00025 5.98068 7.10569 5.7932 7.29317C5.60572 7.48065 5.50028 7.73485 5.50001 7.99999V12H2.50001V5.03073L7.50002 1.13572L12.5 5.03598V12H9.50002Z" fill="white"/>
</svg>
