<svg width="60" height="13" viewBox="0 0 60 13" fill="none" xmlns="http://www.w3.org/2000/svg">
<path d="M6.40625 6.38605V12.7734L12.8093 6.38605H6.40625Z" fill="white"/>
<path d="M0 0.0024538V12.7773L12.8061 0.0024538H0Z" fill="white"/>
<path d="M15.9531 10.0547V0.568165H22.2465V2.24002H17.9916V4.41441H21.7975V6.08615H17.9916V10.0547H15.9531Z" fill="white"/>
<path d="M22.9414 8.47749H24.5584V4.6184H22.9414V3.04186H26.5703V5.026H26.6655C26.7284 4.77217 26.8169 4.52553 26.9309 4.28506C27.0437 4.04562 27.1886 3.83212 27.3656 3.64624C27.5426 3.46101 27.7571 3.31341 28.0104 3.20499C28.2648 3.09593 28.5634 3.04186 28.9074 3.04186H29.5743V4.88996H28.079C27.5801 4.88996 27.2041 5.03653 26.9508 5.33031C26.6975 5.62332 26.5703 5.98223 26.5703 6.40639V8.47749H28.8809V10.0547H22.9414V8.47749Z" fill="white"/>
<path d="M33.3774 4.32066C32.9427 4.32066 32.5965 4.45451 32.3377 4.7217C32.08 4.98876 31.9506 5.34935 31.9506 5.80228V5.91057H34.7777V5.80228C34.7777 5.33997 34.6526 4.97771 34.4038 4.71502C34.1549 4.45233 33.8121 4.32066 33.3774 4.32066ZM33.5411 10.2188C32.3631 10.2188 31.4706 9.89247 30.8634 9.23978C30.2562 8.58837 29.9531 7.70023 29.9531 6.57701C29.9531 6.00576 30.0316 5.49206 30.1909 5.03411C30.349 4.5768 30.5757 4.18681 30.8699 3.86554C31.1642 3.54376 31.5226 3.2993 31.944 3.13166C32.3654 2.96416 32.8388 2.88002 33.3642 2.88002C33.8895 2.88002 34.3607 2.96416 34.7777 3.13166C35.1945 3.2993 35.5474 3.53708 35.8372 3.84512C36.127 4.15315 36.3516 4.52696 36.5108 4.96603C36.669 5.40574 36.7486 5.89734 36.7486 6.44097V7.0388H31.9506V7.16097C31.9506 7.61455 32.091 7.97898 32.372 8.25542C32.6529 8.53199 33.0655 8.66918 33.6086 8.66918C34.0256 8.66918 34.3839 8.59056 34.6825 8.43128C34.9812 8.27315 35.24 8.06299 35.4567 7.79965L36.544 8.9821C36.2731 9.31724 35.8926 9.60704 35.4025 9.85149C34.9136 10.097 34.2932 10.2188 33.5411 10.2188Z" fill="white"/>
<path d="M40.3376 8.90027C40.6905 8.90027 40.9892 8.81511 41.2346 8.64259C41.4791 8.47007 41.6007 8.22112 41.6007 7.89484V7.05268H40.5279C39.7028 7.05268 39.2902 7.32912 39.2902 7.88161V8.15265C39.2902 8.39813 39.3864 8.58402 39.5767 8.71003C39.7669 8.8372 40.0202 8.90027 40.3376 8.90027ZM43.2321 10.0561C42.8152 10.0561 42.48 9.94989 42.2267 9.7364C41.9724 9.52406 41.8231 9.21769 41.7778 8.8196H41.7102C41.583 9.28076 41.332 9.63029 40.9559 9.86588C40.5799 10.1015 40.1198 10.2188 39.5767 10.2188C38.8965 10.2188 38.3512 10.0351 37.9386 9.66896C37.5261 9.3017 37.3203 8.78749 37.3203 8.12606C37.3203 7.39219 37.5869 6.84857 38.1223 6.49518C38.6565 6.1418 39.4406 5.96542 40.4737 5.96542H41.6007V5.61204C41.6007 5.19507 41.5034 4.88035 41.3088 4.6675C41.114 4.45451 40.7856 4.34777 40.3232 4.34777C39.8974 4.34777 39.5535 4.42959 39.2902 4.59222C39.028 4.75536 38.8014 4.96885 38.6112 5.23155L37.5106 4.25271C37.7461 3.85398 38.1156 3.52552 38.6177 3.26719C39.121 3.00899 39.7669 2.88002 40.5545 2.88002C41.5144 2.88002 42.2644 3.09968 42.8041 3.53926C43.3428 3.97897 43.6126 4.64258 43.6126 5.53021V8.60161H44.3868V10.0561H43.2321Z" fill="white"/>
<path d="M48.2561 8.64259C48.61 8.64259 48.9153 8.55742 49.1741 8.38593C49.4319 8.21457 49.5612 7.94468 49.5612 7.57588V5.52353C49.5612 5.15409 49.4319 4.88433 49.1741 4.71335C48.9153 4.54199 48.61 4.45683 48.2561 4.45683C47.8037 4.45683 47.4543 4.59389 47.2098 4.86879C46.9654 5.14304 46.8426 5.52353 46.8426 6.00961V7.0898C46.8426 7.57588 46.9654 7.95573 47.2098 8.23114C47.4543 8.50552 47.8037 8.64259 48.2561 8.64259ZM49.5612 8.76539H49.466C49.2848 9.19559 49.0337 9.54513 48.7117 9.81501C48.39 10.0837 47.9486 10.2188 47.3867 10.2188C46.9973 10.2188 46.6413 10.1468 46.3194 10.0019C45.9976 9.85702 45.7222 9.63479 45.4909 9.33497C45.2599 9.03631 45.0785 8.65595 44.9468 8.19351C44.8151 7.73235 44.75 7.18371 44.75 6.54939C44.75 5.91558 44.8151 5.36707 44.9468 4.90527C45.0785 4.44296 45.2599 4.06247 45.4909 3.76329C45.7222 3.46463 45.9976 3.24227 46.3194 3.0975C46.6413 2.9526 46.9973 2.88015 47.3867 2.88015C47.6676 2.88015 47.9166 2.91663 48.1345 2.98959C48.3512 3.06269 48.5437 3.16391 48.7117 3.2916C48.8787 3.41928 49.0248 3.57253 49.1464 3.75057C49.2692 3.92861 49.3755 4.12271 49.466 4.33351H49.5612V-0.00113201H51.5731V10.0561H49.5612V8.76539Z" fill="white"/>
<path d="M57.946 3.04688H59.9977L56.695 11.1879C56.4871 11.7045 56.2105 12.0982 55.8666 12.3703C55.5215 12.6413 55.0503 12.7773 54.4531 12.7773H53.0661V11.2012H54.7517L55.1864 10.0189L52.3594 3.04688H54.5205L55.5403 5.99612L56.1785 8.03459H56.2869L56.8985 5.99612L57.946 3.04688Z" fill="white"/>
</svg>
