<svg width="123" height="27" viewBox="0 0 123 27" fill="none" xmlns="http://www.w3.org/2000/svg">
<path d="M13.1328 13.6788V26.7734L26.2596 13.6788H13.1328Z" fill="#A0A0A0"/>
<path d="M0 0.591698V26.7812L26.2535 0.591698H0Z" fill="#A0A0A0"/>
<path d="M32.707 21.1992V1.75109H45.6089V5.17853H36.8861V9.6362H44.6885V13.0634H36.8861V21.1992H32.707Z" fill="#A0A0A0"/>
<path d="M47.0312 17.9658H50.3463V10.0544H47.0312V6.82236H54.4708V10.89H54.666C54.795 10.3696 54.9764 9.864 55.21 9.37102C55.4412 8.88014 55.7383 8.44245 56.1012 8.06139C56.4641 7.68164 56.9039 7.37906 57.4232 7.1568C57.9446 6.93321 58.5569 6.82236 59.2621 6.82236H60.6291V10.6111H57.5638C56.541 10.6111 55.7701 10.9116 55.2508 11.5139C54.7315 12.1146 54.4708 12.8503 54.4708 13.7199V17.9658H59.2076V21.1992H47.0312V17.9658Z" fill="#A0A0A0"/>
<path d="M68.4263 9.44751C67.5351 9.44751 66.8254 9.72191 66.2947 10.2697C65.7665 10.8172 65.5013 11.5564 65.5013 12.485V12.7069H71.297V12.485C71.297 11.5372 71.0405 10.7945 70.5304 10.256C70.0203 9.71743 69.3174 9.44751 68.4263 9.44751ZM68.7618 21.5391C66.3469 21.5391 64.5172 20.8702 63.2723 19.5321C62.0275 18.1967 61.4062 16.3759 61.4062 14.0732C61.4062 12.9021 61.5671 11.849 61.8937 10.9101C62.2179 9.97262 62.6827 9.1731 63.2857 8.51447C63.8891 7.85479 64.6238 7.35363 65.4876 7.00997C66.3516 6.66656 67.3221 6.49408 68.3991 6.49408C69.4762 6.49408 70.4422 6.66656 71.297 7.00997C72.1516 7.35363 72.875 7.84109 73.4691 8.4726C74.0632 9.1041 74.5235 9.87045 74.8501 10.7706C75.1743 11.672 75.3375 12.6798 75.3375 13.7943V15.0199H65.5013V15.2704C65.5013 16.2002 65.7891 16.9474 66.3651 17.5141C66.941 18.0811 67.7869 18.3623 68.9003 18.3623C69.7551 18.3623 70.4896 18.2012 71.1019 17.8746C71.7142 17.5504 72.2448 17.1196 72.6891 16.5797L74.918 19.0038C74.3626 19.6909 73.5826 20.285 72.5779 20.7862C71.5756 21.2894 70.3037 21.5391 68.7618 21.5391Z" fill="#A0A0A0"/>
<path d="M82.6936 18.8361C83.417 18.8361 84.0293 18.6615 84.5325 18.3078C85.0337 17.9541 85.283 17.4438 85.283 16.7749V15.0484H83.0836C81.3921 15.0484 80.5462 15.6151 80.5462 16.7477V17.3034C80.5462 17.8066 80.7435 18.1877 81.1335 18.4461C81.5235 18.7068 82.0428 18.8361 82.6936 18.8361ZM88.6275 21.2057C87.7727 21.2057 87.0857 20.9879 86.5663 20.5502C86.0449 20.1149 85.7389 19.4868 85.646 18.6707H85.5074C85.2467 19.6161 84.7321 20.3327 83.961 20.8157C83.1902 21.2986 82.2469 21.5391 81.1335 21.5391C79.7391 21.5391 78.6212 21.1625 77.7753 20.4119C76.9297 19.659 76.5078 18.6049 76.5078 17.2489C76.5078 15.7444 77.0543 14.6299 78.1519 13.9054C79.2472 13.181 80.8546 12.8194 82.9724 12.8194H85.283V12.0949C85.283 11.2401 85.0834 10.5949 84.6845 10.1585C84.2852 9.72192 83.6118 9.50307 82.664 9.50307C81.7911 9.50307 81.0861 9.67083 80.5462 10.0042C80.0087 10.3387 79.5442 10.7764 79.1542 11.3149L76.8978 9.3082C77.3808 8.49077 78.1382 7.8174 79.1676 7.28781C80.1994 6.75848 81.5235 6.49409 83.1381 6.49409C85.1061 6.49409 86.6435 6.9444 87.7501 7.84557C88.8543 8.747 89.4076 10.1075 89.4076 11.9272V18.2238H90.9948V21.2057H88.6275Z" fill="#A0A0A0"/>
<path d="M98.9261 18.3078C99.6516 18.3078 100.278 18.1332 100.808 17.7816C101.336 17.4303 101.602 16.877 101.602 16.121V11.9135C101.602 11.1561 101.336 10.6031 100.808 10.2526C100.278 9.90126 99.6516 9.72666 98.9261 9.72666C97.9986 9.72666 97.2823 10.0077 96.7811 10.5712C96.28 11.1335 96.0282 11.9135 96.0282 12.91V15.1245C96.0282 16.121 96.28 16.8997 96.7811 17.4643C97.2823 18.0268 97.9986 18.3078 98.9261 18.3078ZM101.602 18.5596H101.407C101.035 19.4415 100.52 20.1581 99.8602 20.7114C99.2005 21.2623 98.2956 21.5391 97.1437 21.5391C96.3455 21.5391 95.6155 21.3916 94.9556 21.0945C94.2959 20.7975 93.7313 20.3419 93.2573 19.7272C92.7835 19.115 92.4117 18.3352 92.1417 17.3872C91.8718 16.4417 91.7383 15.317 91.7383 14.0166C91.7383 12.7172 91.8718 11.5927 92.1417 10.646C92.4117 9.69822 92.7835 8.91819 93.2573 8.30485C93.7313 7.69257 94.2959 7.23672 94.9556 6.93993C95.6155 6.64288 96.3455 6.49434 97.1437 6.49434C97.7197 6.49434 98.23 6.56913 98.6767 6.71871C99.1209 6.86856 99.5157 7.07608 99.8602 7.33784C100.203 7.59961 100.502 7.91378 100.751 8.27878C101.003 8.64378 101.221 9.0417 101.407 9.47385H101.602V0.587486H105.726V21.2057H101.602V18.5596Z" fill="#A0A0A0"/>
<path d="M118.793 6.83301H122.999L116.228 23.5229C115.802 24.5818 115.235 25.3889 114.53 25.9467C113.822 26.5024 112.856 26.7812 111.632 26.7812H108.789V23.55H112.244L113.136 21.1261L107.34 6.83301H111.77L113.861 12.8792L115.169 17.0582H115.392L116.645 12.8792L118.793 6.83301Z" fill="#A0A0A0"/>
</svg>
