<svg width="28" height="16" viewBox="0 0 28 16" fill="none" xmlns="http://www.w3.org/2000/svg">
<rect x="1" y="1" width="26" height="14" rx="2" stroke="#5B5C61"/>
<rect x="1" y="1" width="26" height="13" rx="2" stroke="#5B5C61"/>
<path d="M6.17444 10.0864C5.81444 10.0864 5.51204 10.0264 5.26724 9.9064C5.02244 9.7816 4.80644 9.6112 4.61924 9.3952L5.18084 8.848C5.32004 9.0064 5.47124 9.1312 5.63444 9.2224C5.80244 9.3136 5.99444 9.3592 6.21044 9.3592C6.43124 9.3592 6.58964 9.3208 6.68564 9.244C6.78644 9.1672 6.83684 9.0616 6.83684 8.9272C6.83684 8.8168 6.80084 8.7304 6.72884 8.668C6.66164 8.6008 6.54404 8.5552 6.37604 8.5312L6.00164 8.4808C5.59364 8.428 5.28164 8.3128 5.06564 8.1352C4.85444 7.9528 4.74884 7.6888 4.74884 7.3432C4.74884 7.1608 4.78244 6.9976 4.84964 6.8536C4.91684 6.7048 5.01284 6.58 5.13764 6.4792C5.26244 6.3736 5.41124 6.2944 5.58404 6.2416C5.76164 6.184 5.95844 6.1552 6.17444 6.1552C6.35684 6.1552 6.51764 6.1696 6.65684 6.1984C6.80084 6.2224 6.93044 6.2608 7.04564 6.3136C7.16084 6.3616 7.26644 6.424 7.36244 6.5008C7.45844 6.5728 7.55204 6.6544 7.64324 6.7456L7.10324 7.2856C6.99284 7.1704 6.86084 7.0744 6.70724 6.9976C6.55364 6.9208 6.38564 6.8824 6.20324 6.8824C6.00164 6.8824 5.85524 6.9184 5.76404 6.9904C5.67764 7.0624 5.63444 7.156 5.63444 7.2712C5.63444 7.396 5.67044 7.492 5.74244 7.5592C5.81924 7.6216 5.94644 7.6672 6.12404 7.696L6.50564 7.7464C7.31684 7.8616 7.72244 8.2312 7.72244 8.8552C7.72244 9.0376 7.68404 9.2056 7.60724 9.3592C7.53524 9.508 7.43204 9.6376 7.29764 9.748C7.16324 9.8536 7.00004 9.9376 6.80804 10C6.62084 10.0576 6.40964 10.0864 6.17444 10.0864ZM8.68021 6.2416H9.60181V6.8608H9.63061C9.69781 6.6448 9.82501 6.4744 10.0122 6.3496C10.1994 6.22 10.4178 6.1552 10.6674 6.1552C11.1474 6.1552 11.5122 6.3256 11.7618 6.6664C12.0162 7.0024 12.1434 7.4848 12.1434 8.1136C12.1434 8.7472 12.0162 9.2344 11.7618 9.5752C11.5122 9.916 11.1474 10.0864 10.6674 10.0864C10.4178 10.0864 10.1994 10.0216 10.0122 9.892C9.82981 9.7624 9.70261 9.5896 9.63061 9.3736H9.60181V11.44H8.68021V6.2416ZM10.3722 9.3232C10.6122 9.3232 10.8066 9.244 10.9554 9.0856C11.1042 8.9272 11.1786 8.7136 11.1786 8.4448V7.7968C11.1786 7.528 11.1042 7.3144 10.9554 7.156C10.8066 6.9928 10.6122 6.9112 10.3722 6.9112C10.1514 6.9112 9.96661 6.9664 9.81781 7.0768C9.67381 7.1872 9.60181 7.3336 9.60181 7.516V8.7112C9.60181 8.908 9.67381 9.0592 9.81781 9.1648C9.96661 9.2704 10.1514 9.3232 10.3722 9.3232ZM15.9062 10C15.7046 10 15.5438 9.9424 15.4238 9.8272C15.3086 9.7072 15.2366 9.5488 15.2078 9.352H15.1646C15.1022 9.5968 14.975 9.7816 14.783 9.9064C14.591 10.0264 14.3534 10.0864 14.0702 10.0864C13.6862 10.0864 13.391 9.9856 13.1846 9.784C12.9782 9.5824 12.875 9.3136 12.875 8.9776C12.875 8.5888 13.0142 8.3008 13.2926 8.1136C13.571 7.9216 13.967 7.8256 14.4806 7.8256H15.1214V7.552C15.1214 7.3408 15.0662 7.1776 14.9558 7.0624C14.8454 6.9472 14.6678 6.8896 14.423 6.8896C14.207 6.8896 14.0318 6.9376 13.8974 7.0336C13.7678 7.1248 13.6574 7.2352 13.5662 7.3648L13.019 6.8752C13.1582 6.6592 13.343 6.4864 13.5734 6.3568C13.8038 6.2224 14.1086 6.1552 14.4878 6.1552C14.9966 6.1552 15.383 6.2704 15.647 6.5008C15.911 6.7312 16.043 7.0624 16.043 7.4944V9.2656H16.4174V10H15.9062ZM14.3798 9.4168C14.5862 9.4168 14.7614 9.3712 14.9054 9.28C15.0494 9.1888 15.1214 9.0544 15.1214 8.8768V8.38H14.531C14.051 8.38 13.811 8.5336 13.811 8.8408V8.9632C13.811 9.1168 13.859 9.232 13.955 9.3088C14.0558 9.3808 14.1974 9.4168 14.3798 9.4168ZM18.7905 10.0864C18.5121 10.0864 18.2649 10.0408 18.0489 9.9496C17.8329 9.8584 17.6505 9.7264 17.5017 9.5536C17.3577 9.3808 17.2473 9.1744 17.1705 8.9344C17.0937 8.6896 17.0553 8.416 17.0553 8.1136C17.0553 7.8112 17.0937 7.54 17.1705 7.3C17.2473 7.06 17.3577 6.856 17.5017 6.688C17.6505 6.5152 17.8329 6.3832 18.0489 6.292C18.2649 6.2008 18.5121 6.1552 18.7905 6.1552C19.1697 6.1552 19.4817 6.2392 19.7265 6.4072C19.9761 6.5752 20.1561 6.808 20.2665 7.1056L19.5105 7.444C19.4673 7.2856 19.3857 7.156 19.2657 7.0552C19.1505 6.9496 18.9921 6.8968 18.7905 6.8968C18.5313 6.8968 18.3369 6.9784 18.2073 7.1416C18.0825 7.3048 18.0201 7.5184 18.0201 7.7824V8.4664C18.0201 8.7304 18.0825 8.944 18.2073 9.1072C18.3369 9.2656 18.5313 9.3448 18.7905 9.3448C19.0113 9.3448 19.1817 9.2896 19.3017 9.1792C19.4217 9.064 19.5153 8.9224 19.5825 8.7544L20.2881 9.0928C20.1633 9.424 19.9737 9.6736 19.7193 9.8416C19.4649 10.0048 19.1553 10.0864 18.7905 10.0864ZM22.6267 10.0864C22.3483 10.0864 22.0987 10.0408 21.8779 9.9496C21.6619 9.8536 21.4771 9.7216 21.3235 9.5536C21.1747 9.3808 21.0595 9.1744 20.9779 8.9344C20.8963 8.6896 20.8555 8.416 20.8555 8.1136C20.8555 7.816 20.8939 7.5472 20.9707 7.3072C21.0523 7.0672 21.1675 6.8632 21.3163 6.6952C21.4651 6.5224 21.6475 6.3904 21.8635 6.2992C22.0795 6.2032 22.3243 6.1552 22.5979 6.1552C22.8907 6.1552 23.1451 6.2056 23.3611 6.3064C23.5771 6.4072 23.7547 6.544 23.8939 6.7168C24.0331 6.8896 24.1363 7.0912 24.2035 7.3216C24.2755 7.5472 24.3115 7.7896 24.3115 8.0488V8.3512H21.8131V8.4448C21.8131 8.7184 21.8899 8.9392 22.0435 9.1072C22.1971 9.2704 22.4251 9.352 22.7275 9.352C22.9579 9.352 23.1451 9.304 23.2891 9.208C23.4379 9.112 23.5699 8.9896 23.6851 8.8408L24.1819 9.3952C24.0283 9.6112 23.8171 9.7816 23.5483 9.9064C23.2843 10.0264 22.9771 10.0864 22.6267 10.0864ZM22.6123 6.8464C22.3675 6.8464 22.1731 6.928 22.0291 7.0912C21.8851 7.2544 21.8131 7.4656 21.8131 7.7248V7.7824H23.3539V7.7176C23.3539 7.4584 23.2891 7.2496 23.1595 7.0912C23.0347 6.928 22.8523 6.8464 22.6123 6.8464Z" fill="#E4E4E4"/>
</svg>
