<svg width="12" height="11" viewBox="0 0 12 11" fill="none" xmlns="http://www.w3.org/2000/svg">
<path d="M11.3599 1H4.23358C3.88021 1 3.59375 1.28646 3.59375 1.63983C3.59375 1.99319 3.88021 2.27965 4.23358 2.27965H11.3599C11.7132 2.27965 11.9997 1.99319 11.9997 1.63983C11.9997 1.28646 11.7132 1 11.3599 1Z" fill="#E4E4E4"/>
<path d="M8.95816 4.83984H4.23358C3.88021 4.83984 3.59375 5.1263 3.59375 5.47967C3.59375 5.83304 3.88021 6.1195 4.23358 6.1195H8.95816C9.31153 6.1195 9.59799 5.83304 9.59799 5.47967C9.59799 5.1263 9.31153 4.83984 8.95816 4.83984Z" fill="#E4E4E4"/>
<path d="M11.3599 8.67969H4.23358C3.88021 8.67969 3.59375 8.96615 3.59375 9.31951C3.59375 9.67288 3.88021 9.95934 4.23358 9.95934H11.3599C11.7132 9.95934 11.9997 9.67288 11.9997 9.31951C11.9997 8.96615 11.7132 8.67969 11.3599 8.67969Z" fill="#E4E4E4"/>
<path d="M1 10.5V0.5C1 0.223858 0.776142 0 0.5 0C0.223858 0 0 0.223858 0 0.5V10.5C0 10.7761 0.223858 11 0.5 11C0.776142 11 1 10.7761 1 10.5Z" fill="#E4E4E4"/>
</svg>
