<svg width="11" height="13" viewBox="0 0 11 13" fill="none" xmlns="http://www.w3.org/2000/svg">
<path d="M9.65911 1.01953H3.55911C3.27837 1.01953 3.05078 1.24712 3.05078 1.52786C3.05078 1.80861 3.27837 2.0362 3.55911 2.0362H9.65911C9.93986 2.0362 10.1674 1.80861 10.1674 1.52786C10.1674 1.24712 9.93986 1.01953 9.65911 1.01953Z" fill="white"/>
<path d="M7.62578 4.06641H3.55911C3.27837 4.06641 3.05078 4.29399 3.05078 4.57474C3.05078 4.85548 3.27837 5.08307 3.55911 5.08307H7.62578C7.90653 5.08307 8.13411 4.85548 8.13411 4.57474C8.13411 4.29399 7.90653 4.06641 7.62578 4.06641Z" fill="white"/>
<path d="M9.65911 7.11719H3.55911C3.27837 7.11719 3.05078 7.34478 3.05078 7.62552C3.05078 7.90627 3.27837 8.13385 3.55911 8.13385H9.65911C9.93986 8.13385 10.1674 7.90627 10.1674 7.62552C10.1674 7.34478 9.93986 7.11719 9.65911 7.11719Z" fill="white"/>
<path d="M7.62578 10.168H3.55911C3.27837 10.168 3.05078 10.3956 3.05078 10.6763C3.05078 10.957 3.27837 11.1846 3.55911 11.1846H7.62578C7.90653 11.1846 8.13411 10.957 8.13411 10.6763C8.13411 10.3956 7.90653 10.168 7.62578 10.168Z" fill="white"/>
<path d="M1.01667 11.6917V0.508333C1.01667 0.227589 0.789078 0 0.508333 0C0.227589 0 0 0.227588 0 0.508333V11.6917C0 11.9724 0.227589 12.2 0.508333 12.2C0.789078 12.2 1.01667 11.9724 1.01667 11.6917Z" fill="white"/>
</svg>
