<svg width="14" height="18" viewBox="0 0 14 18" fill="none" xmlns="http://www.w3.org/2000/svg">
<path d="M10.7689 7.53906H3.23047V9.04675H10.7689V7.53906Z" fill="white"/>
<path d="M7.53816 10.7695H3.23047V12.2772H7.53816V10.7695Z" fill="white"/>
<path d="M10.7689 4.30859H3.23047V5.81629H10.7689V4.30859Z" fill="white"/>
<path d="M12.6 17.2308H1.4C1.02883 17.2304 0.67298 17.1006 0.410521 16.8699C0.148062 16.6391 0.000426113 16.3263 0 16V1.23077C0.000426113 0.904464 0.148062 0.591631 0.410521 0.360898C0.67298 0.130165 1.02883 0.000374605 1.4 0H12.6C12.9712 0.000374605 13.327 0.130165 13.5895 0.360898C13.8519 0.591631 13.9996 0.904464 14 1.23077V16C13.9996 16.3263 13.8519 16.6391 13.5895 16.8699C13.327 17.1006 12.9712 17.2304 12.6 17.2308ZM1.4 1.23077V16H12.6V1.23077H1.4Z" fill="white"/>
</svg>
