<svg width="253" height="50" viewBox="0 0 253 50" fill="none" xmlns="http://www.w3.org/2000/svg">
<path d="M146.52 32C145.027 32 143.916 31.608 143.188 30.824C142.46 30.04 142.096 29.0413 142.096 27.828V20.772H138.176V17.552H140.724C141.34 17.552 141.779 17.4307 142.04 17.188C142.301 16.9453 142.432 16.4973 142.432 15.844V12.456H146.24V17.552H151.868V20.772H146.24V28.78H151.868V32H146.52ZM162.189 32.336C161.069 32.336 160.061 32.168 159.165 31.832C158.269 31.4773 157.504 30.9733 156.869 30.32C156.253 29.6667 155.777 28.8733 155.441 27.94C155.105 27.0067 154.937 25.952 154.937 24.776C154.937 23.6 155.105 22.5453 155.441 21.612C155.777 20.6787 156.253 19.8853 156.869 19.232C157.504 18.5787 158.269 18.084 159.165 17.748C160.061 17.3933 161.069 17.216 162.189 17.216C163.309 17.216 164.317 17.3933 165.213 17.748C166.109 18.084 166.865 18.5787 167.481 19.232C168.116 19.8853 168.601 20.6787 168.937 21.612C169.273 22.5453 169.441 23.6 169.441 24.776C169.441 25.952 169.273 27.0067 168.937 27.94C168.601 28.8733 168.116 29.6667 167.481 30.32C166.865 30.9733 166.109 31.4773 165.213 31.832C164.317 32.168 163.309 32.336 162.189 32.336ZM162.189 29.256C163.122 29.256 163.85 28.9667 164.373 28.388C164.896 27.8093 165.157 26.988 165.157 25.924V23.628C165.157 22.564 164.896 21.7427 164.373 21.164C163.85 20.5853 163.122 20.296 162.189 20.296C161.256 20.296 160.528 20.5853 160.005 21.164C159.482 21.7427 159.221 22.564 159.221 23.628V25.924C159.221 26.988 159.482 27.8093 160.005 28.388C160.528 28.9667 161.256 29.256 162.189 29.256ZM189.439 28.78H192.771V20.772H189.439V17.552H196.915V21.64H197.111C197.242 21.1173 197.419 20.6133 197.643 20.128C197.886 19.624 198.185 19.1853 198.539 18.812C198.913 18.42 199.361 18.112 199.883 17.888C200.406 17.664 201.022 17.552 201.731 17.552H203.103V21.36H200.023C198.997 21.36 198.222 21.668 197.699 22.284C197.177 22.8813 196.915 23.6187 196.915 24.496V28.78H201.675V32H189.439V28.78ZM212.948 32.336C210.522 32.336 208.683 31.664 207.432 30.32C206.182 28.976 205.556 27.1467 205.556 24.832C205.556 23.656 205.715 22.6013 206.032 21.668C206.368 20.716 206.835 19.9133 207.432 19.26C208.048 18.588 208.786 18.084 209.644 17.748C210.522 17.3933 211.502 17.216 212.584 17.216C213.667 17.216 214.638 17.3933 215.496 17.748C216.355 18.084 217.083 18.5693 217.68 19.204C218.278 19.8387 218.735 20.6133 219.052 21.528C219.388 22.424 219.556 23.432 219.556 24.552V25.784H209.672V26.036C209.672 26.9693 209.962 27.7253 210.54 28.304C211.119 28.864 211.968 29.144 213.088 29.144C213.947 29.144 214.684 28.9853 215.3 28.668C215.916 28.332 216.448 27.8933 216.896 27.352L219.136 29.788C218.576 30.4787 217.792 31.076 216.784 31.58C215.776 32.084 214.498 32.336 212.948 32.336ZM212.612 20.184C211.716 20.184 210.998 20.464 210.456 21.024C209.934 21.5653 209.672 22.3027 209.672 23.236V23.46H215.496V23.236C215.496 22.284 215.235 21.5373 214.712 20.996C214.208 20.4547 213.508 20.184 212.612 20.184ZM234.581 32C233.723 32 233.032 31.7853 232.509 31.356C231.987 30.908 231.679 30.2733 231.585 29.452H231.445C231.184 30.404 230.661 31.1227 229.877 31.608C229.112 32.0933 228.169 32.336 227.049 32.336C225.649 32.336 224.52 31.9627 223.661 31.216C222.821 30.4507 222.401 29.3867 222.401 28.024C222.401 26.512 222.952 25.392 224.053 24.664C225.155 23.936 226.769 23.572 228.897 23.572H231.221V22.844C231.221 21.9853 231.016 21.3413 230.605 20.912C230.213 20.464 229.541 20.24 228.589 20.24C227.712 20.24 227.003 20.408 226.461 20.744C225.92 21.08 225.453 21.5187 225.061 22.06L222.793 20.044C223.279 19.2227 224.035 18.5507 225.061 18.028C226.107 17.4867 227.441 17.216 229.065 17.216C231.044 17.216 232.584 17.6733 233.685 18.588C234.805 19.484 235.365 20.8467 235.365 22.676V29.004H236.961V32H234.581ZM228.617 29.62C229.345 29.62 229.961 29.4427 230.465 29.088C230.969 28.7333 231.221 28.22 231.221 27.548V25.812H229.009C227.311 25.812 226.461 26.3813 226.461 27.52V28.08C226.461 28.584 226.657 28.9667 227.049 29.228C227.441 29.4893 227.964 29.62 228.617 29.62ZM248.738 29.368H248.542C248.169 30.2453 247.646 30.964 246.974 31.524C246.321 32.0653 245.416 32.336 244.258 32.336C243.456 32.336 242.718 32.1867 242.046 31.888C241.393 31.5893 240.824 31.132 240.338 30.516C239.872 29.9 239.498 29.116 239.218 28.164C238.957 27.212 238.826 26.0827 238.826 24.776C238.826 23.4693 238.957 22.34 239.218 21.388C239.498 20.436 239.872 19.652 240.338 19.036C240.824 18.42 241.393 17.9627 242.046 17.664C242.718 17.3653 243.456 17.216 244.258 17.216C244.837 17.216 245.35 17.2907 245.798 17.44C246.246 17.5893 246.638 17.7947 246.974 18.056C247.329 18.3173 247.628 18.6347 247.87 19.008C248.132 19.3627 248.356 19.7547 248.542 20.184H248.738V11.28H252.882V32H248.738V29.368ZM246.05 29.116C246.778 29.116 247.404 28.9387 247.926 28.584C248.468 28.2293 248.738 27.6693 248.738 26.904V22.648C248.738 21.8827 248.468 21.3227 247.926 20.968C247.404 20.6133 246.778 20.436 246.05 20.436C245.117 20.436 244.398 20.7253 243.894 21.304C243.39 21.864 243.138 22.648 243.138 23.656V25.896C243.138 26.904 243.39 27.6973 243.894 28.276C244.398 28.836 245.117 29.116 246.05 29.116Z" fill="white"/>
<path d="M118.762 41.5V41.5C118.762 45.0186 115.91 47.8709 112.391 47.8709H12C6.47714 47.8709 2 43.3938 2 37.8709V16.5C2 12.9101 4.91015 10 8.5 10V10" stroke="#636262" stroke-opacity="0.6" stroke-width="3"/>
<rect x="8.03833" y="1.5" width="116.3" height="40.3226" rx="8.5" stroke="#636262" stroke-width="3"/>
<path d="M35.1594 29.288C33.7834 29.288 32.5834 29.08 31.5594 28.664C30.5514 28.248 29.7914 27.68 29.2794 26.96L31.2714 25.112C31.7514 25.64 32.3114 26.056 32.9514 26.36C33.6074 26.648 34.3514 26.792 35.1834 26.792C35.8874 26.792 36.4394 26.688 36.8394 26.48C37.2394 26.256 37.4394 25.92 37.4394 25.472C37.4394 25.12 37.3034 24.88 37.0314 24.752C36.7594 24.608 36.3834 24.496 35.9034 24.416L33.9114 24.104C33.3514 24.024 32.8314 23.904 32.3514 23.744C31.8714 23.568 31.4554 23.336 31.1034 23.048C30.7514 22.76 30.4714 22.408 30.2634 21.992C30.0554 21.576 29.9514 21.072 29.9514 20.48C29.9514 19.184 30.4474 18.168 31.4394 17.432C32.4314 16.696 33.8234 16.328 35.6154 16.328C36.8314 16.328 37.8634 16.496 38.7114 16.832C39.5754 17.152 40.2634 17.616 40.7754 18.224L38.9994 20.24C38.6314 19.84 38.1594 19.504 37.5834 19.232C37.0074 18.96 36.3114 18.824 35.4954 18.824C34.1194 18.824 33.4314 19.24 33.4314 20.072C33.4314 20.44 33.5674 20.696 33.8394 20.84C34.1114 20.968 34.4874 21.072 34.9674 21.152L36.9354 21.464C37.4954 21.544 38.0154 21.672 38.4954 21.848C38.9754 22.008 39.3914 22.232 39.7434 22.52C40.1114 22.808 40.3994 23.16 40.6074 23.576C40.8154 23.992 40.9194 24.496 40.9194 25.088C40.9194 26.384 40.4154 27.408 39.4074 28.16C38.4154 28.912 36.9994 29.288 35.1594 29.288ZM44.8701 16.616H48.4221V18.872H48.5901C48.8941 18.136 49.3341 17.528 49.9101 17.048C50.4861 16.568 51.2701 16.328 52.2621 16.328C52.9501 16.328 53.5741 16.456 54.1341 16.712C54.7101 16.968 55.1981 17.36 55.5981 17.888C56.0141 18.416 56.3341 19.088 56.5581 19.904C56.7981 20.72 56.9181 21.688 56.9181 22.808C56.9181 23.928 56.7981 24.896 56.5581 25.712C56.3341 26.528 56.0141 27.2 55.5981 27.728C55.1981 28.256 54.7101 28.648 54.1341 28.904C53.5741 29.16 52.9501 29.288 52.2621 29.288C51.2701 29.288 50.4861 29.056 49.9101 28.592C49.3341 28.112 48.8941 27.496 48.5901 26.744H48.4221V33.8H44.8701V16.616ZM50.7261 26.528C51.5261 26.528 52.1421 26.288 52.5741 25.808C53.0061 25.312 53.2221 24.632 53.2221 23.768V21.848C53.2221 20.984 53.0061 20.312 52.5741 19.832C52.1421 19.336 51.5261 19.088 50.7261 19.088C50.1021 19.088 49.5581 19.24 49.0941 19.544C48.6461 19.848 48.4221 20.328 48.4221 20.984V24.632C48.4221 25.288 48.6461 25.768 49.0941 26.072C49.5581 26.376 50.1021 26.528 50.7261 26.528ZM70.4927 29C69.7567 29 69.1647 28.816 68.7167 28.448C68.2687 28.064 68.0047 27.52 67.9247 26.816H67.8047C67.5807 27.632 67.1327 28.248 66.4607 28.664C65.8047 29.08 64.9967 29.288 64.0367 29.288C62.8367 29.288 61.8687 28.968 61.1327 28.328C60.4127 27.672 60.0527 26.76 60.0527 25.592C60.0527 24.296 60.5247 23.336 61.4687 22.712C62.4127 22.088 63.7967 21.776 65.6207 21.776H67.6127V21.152C67.6127 20.416 67.4367 19.864 67.0847 19.496C66.7487 19.112 66.1727 18.92 65.3567 18.92C64.6047 18.92 63.9967 19.064 63.5327 19.352C63.0687 19.64 62.6687 20.016 62.3327 20.48L60.3887 18.752C60.8047 18.048 61.4527 17.472 62.3327 17.024C63.2287 16.56 64.3727 16.328 65.7647 16.328C67.4607 16.328 68.7807 16.72 69.7247 17.504C70.6847 18.272 71.1647 19.44 71.1647 21.008V26.432H72.5327V29H70.4927ZM65.3807 26.96C66.0047 26.96 66.5327 26.808 66.9647 26.504C67.3967 26.2 67.6127 25.76 67.6127 25.184V23.696H65.7167C64.2607 23.696 63.5327 24.184 63.5327 25.16V25.64C63.5327 26.072 63.7007 26.4 64.0367 26.624C64.3727 26.848 64.8207 26.96 65.3807 26.96ZM81.8593 29.288C80.8833 29.288 80.0033 29.144 79.2193 28.856C78.4513 28.552 77.7953 28.12 77.2513 27.56C76.7233 27 76.3153 26.32 76.0273 25.52C75.7393 24.72 75.5953 23.816 75.5953 22.808C75.5953 21.8 75.7393 20.896 76.0273 20.096C76.3153 19.296 76.7233 18.616 77.2513 18.056C77.7953 17.496 78.4513 17.072 79.2193 16.784C80.0033 16.48 80.8753 16.328 81.8353 16.328C83.1953 16.328 84.2833 16.608 85.0993 17.168C85.9313 17.712 86.5633 18.44 86.9953 19.352L84.2593 20.84C84.0353 20.36 83.7393 19.96 83.3713 19.64C83.0193 19.32 82.5073 19.16 81.8353 19.16C81.0193 19.16 80.3873 19.4 79.9393 19.88C79.5073 20.344 79.2913 20.984 79.2913 21.8V23.816C79.2913 24.632 79.5073 25.28 79.9393 25.76C80.3873 26.224 81.0353 26.456 81.8833 26.456C82.5713 26.456 83.1073 26.296 83.4913 25.976C83.8913 25.656 84.2273 25.24 84.4993 24.728L87.1873 26.264C86.7393 27.176 86.0833 27.912 85.2193 28.472C84.3713 29.016 83.2513 29.288 81.8593 29.288ZM97.0419 29.288C94.9619 29.288 93.3859 28.712 92.3139 27.56C91.2419 26.408 90.7059 24.84 90.7059 22.856C90.7059 21.848 90.8419 20.944 91.1139 20.144C91.4019 19.328 91.8019 18.64 92.3139 18.08C92.8419 17.504 93.4739 17.072 94.2099 16.784C94.9619 16.48 95.8019 16.328 96.7299 16.328C97.6579 16.328 98.4899 16.48 99.2259 16.784C99.9619 17.072 100.586 17.488 101.098 18.032C101.61 18.576 102.002 19.24 102.274 20.024C102.562 20.792 102.706 21.656 102.706 22.616V23.672H94.2339V23.888C94.2339 24.688 94.4819 25.336 94.9779 25.832C95.4739 26.312 96.2019 26.552 97.1619 26.552C97.8979 26.552 98.5299 26.416 99.0579 26.144C99.5859 25.856 100.042 25.48 100.426 25.016L102.346 27.104C101.866 27.696 101.194 28.208 100.33 28.64C99.4659 29.072 98.3699 29.288 97.0419 29.288ZM96.7539 18.872C95.9859 18.872 95.3699 19.112 94.9059 19.592C94.4579 20.056 94.2339 20.688 94.2339 21.488V21.68H99.2259V21.488C99.2259 20.672 99.0019 20.032 98.5539 19.568C98.1219 19.104 97.5219 18.872 96.7539 18.872Z" fill="white"/>
</svg>
