<svg width="12" height="13" viewBox="0 0 12 13" fill="none" xmlns="http://www.w3.org/2000/svg">
<path d="M11.0013 10.2126H9.16795V8.35547H8.25129V10.2126H6.41797V11.1411H8.25129V12.9983H9.16795V11.1411H11.0013V10.2126Z" fill="#BABABA"/>
<path d="M4.5833 12.0714H0.91666V0.92872H4.5833V3.7144C4.584 3.96045 4.6808 4.19622 4.85256 4.37021C5.02431 4.54419 5.25706 4.64225 5.49996 4.64296H8.24994V6.50008H9.1666V3.7144C9.16824 3.65338 9.1568 3.59272 9.13306 3.53662C9.10932 3.48051 9.07386 3.43028 9.0291 3.3894L5.82079 0.139444C5.78045 0.0940967 5.73087 0.0581592 5.67548 0.034112C5.62008 0.0100648 5.5602 -0.00151924 5.49996 0.000159584H0.91666C0.673762 0.000870046 0.441014 0.0989284 0.269258 0.272913C0.0975029 0.446898 0.000701357 0.682669 0 0.92872V12.0714C0.000701357 12.3175 0.0975029 12.5533 0.269258 12.7272C0.441014 12.9012 0.673762 12.9993 0.91666 13H4.5833V12.0714ZM5.49996 1.11443L8.06661 3.7144H5.49996V1.11443Z" fill="#BABABA"/>
</svg>
